HIERARCHY
ROOT Hips
{
 OFFSET 0.000000 0.000000 0.000000
 CHANNELS 6 Xposition Yposition Zposition Yrotation Xrotation Zrotation
 JOINT Chest
 {
  OFFSET 0.000000 9.588913 -0.003946
  CHANNELS 3 Yrotation Xrotation Zrotation
  JOINT Chest2
  {
   OFFSET 0.000000 9.541882 0.008053
   CHANNELS 3 Yrotation Xrotation Zrotation
   JOINT Chest3
   {
    OFFSET 0.000000 9.501360 0.000000
    CHANNELS 3 Yrotation Xrotation Zrotation
    JOINT Chest4
    {
     OFFSET 0.000000 9.491660 0.000000
     CHANNELS 3 Yrotation Xrotation Zrotation
     JOINT Neck
     {
      OFFSET 0.000000 14.331917 0.000000
      CHANNELS 3 Yrotation Xrotation Zrotation
      JOINT Head
      {
       OFFSET 0.000000 8.884799 0.017034
       CHANNELS 3 Yrotation Xrotation Zrotation
       End Site
       {
        OFFSET 0.000000 16.896195 0.008993
       }
      }
     }
     JOINT RightCollar
     {
      OFFSET -2.923010 9.499495 0.000000
      CHANNELS 3 Yrotation Xrotation Zrotation
      JOINT RightShoulder
      {
       OFFSET -13.795216 0.000000 0.000000
       CHANNELS 3 Yrotation Xrotation Zrotation
       JOINT RightElbow
       {
        OFFSET -30.272209 0.000000 0.000000
        CHANNELS 3 Yrotation Xrotation Zrotation
        JOINT RightWrist
        {
         OFFSET -24.478199 0.000000 0.000000
         CHANNELS 3 Yrotation Xrotation Zrotation
         End Site
         {
          OFFSET -18.090752 0.000000 0.000000
         }
        }
       }
      }
     }
     JOINT LeftCollar
     {
      OFFSET 2.923010 9.499495 0.000000
      CHANNELS 3 Yrotation Xrotation Zrotation
      JOINT LeftShoulder
      {
       OFFSET 13.795216 0.000000 0.000000
       CHANNELS 3 Yrotation Xrotation Zrotation
       JOINT LeftElbow
       {
        OFFSET 30.272209 0.000000 0.000000
        CHANNELS 3 Yrotation Xrotation Zrotation
        JOINT LeftWrist
        {
         OFFSET 24.478199 0.000000 0.000000
         CHANNELS 3 Yrotation Xrotation Zrotation
         End Site
         {
          OFFSET 18.090752 0.000000 0.000000
         }
        }
       }
      }
     }
    }
   }
  }
 }
 JOINT RightHip
 {
  OFFSET -7.826875 0.019532 0.001973
  CHANNELS 3 Yrotation Xrotation Zrotation
  JOINT RightKnee
  {
   OFFSET 0.000000 -40.546152 -0.001885
   CHANNELS 3 Yrotation Xrotation Zrotation
   JOINT RightAnkle
   {
    OFFSET 0.000000 -39.417092 -0.003189
    CHANNELS 3 Yrotation Xrotation Zrotation
    JOINT RightToe
    {
     OFFSET 0.000000 -7.579396 17.243563
     CHANNELS 3 Yrotation Xrotation Zrotation
     End Site
     {
      OFFSET 0.000000 -1.500329 6.694466
     }
    }
   }
  }
 }
 JOINT LeftHip
 {
  OFFSET 7.826875 0.019532 0.001973
  CHANNELS 3 Yrotation Xrotation Zrotation
  JOINT LeftKnee
  {
   OFFSET 0.000000 -40.546152 -0.001885
   CHANNELS 3 Yrotation Xrotation Zrotation
   JOINT LeftAnkle
   {
    OFFSET 0.000000 -39.417092 -0.003189
    CHANNELS 3 Yrotation Xrotation Zrotation
    JOINT LeftToe
    {
     OFFSET 0.000000 -7.579396 17.243563
     CHANNELS 3 Yrotation Xrotation Zrotation
     End Site
     {
      OFFSET 0.000000 -1.500329 6.694466
     }
    }
   }
  }
 }
}
MOTION
Frames: 17
Frame Time: 0.008333
0.532960 88.875989 -14.377088 110.714984 -5.388024 -2.992809 -9.181564 2.446364 -2.351777 -5.327736 1.388030 -1.287988 -6.664914 1.715831 -1.629835 -5.327736 1.388030 -1.287988 -25.767781 13.701513 1.894067 -33.234367 -8.917901 9.036879 29.759600 -6.999051 -6.605088 11.630618 -25.334325 78.871003 45.964764 25.484016 23.992726 13.795511 2.081823 -6.726395 12.418486 -4.985423 -1.921032 -1.826076 -13.826654 -53.456205 -45.590775 40.251399 -12.073138 -14.548596 2.922789 12.152279 1.493750 1.327963 0.062305 2.272483 4.531537 0.822305 6.506222 -0.325462 3.365861 -0.002326 0.033805 0.010090 11.773386 12.734417 4.593068 4.710739 0.983137 2.784568 14.169883 -7.854745 -3.880131 0.045402 0.131177 0.002823
0.537984 88.875323 -14.377254 110.739210 -5.390916 -2.999490 -9.193225 2.442379 -2.357503 -5.332608 1.386501 -1.292449 -6.671015 1.713837 -1.635405 -5.332608 1.386501 -1.292449 -25.770130 13.690945 1.903987 -33.242778 -8.929255 9.051272 29.762587 -7.032269 -6.609172 11.658174 -25.334614 78.871417 45.987973 25.448133 24.000503 13.799981 2.078143 -6.724678 12.425915 -5.000855 -1.924864 -1.821120 -13.832699 -53.425148 -45.618804 40.229171 -12.066244 -14.559202 2.924656 12.146492 1.486627 1.326609 0.074498 2.278628 4.540716 0.816468 6.472645 -0.331222 3.366074 -0.002130 0.033790 0.007926 11.763760 12.735289 4.600335 4.710034 0.997933 2.783242 14.180147 -7.866620 -3.881629 0.048178 0.128958 0.004581
0.542925 88.874763 -14.377533 110.762916 -5.390189 -3.007146 -9.200379 2.438445 -2.360888 -5.335275 1.384424 -1.296221 -6.674353 1.711177 -1.640098 -5.335275 1.384424 -1.296221 -25.776369 13.679791 1.918714 -33.258879 -8.939933 9.072987 29.758537 -7.064527 -6.613342 11.668590 -25.334118 78.877921 46.006035 25.411179 24.007709 13.810030 2.073602 -6.728924 12.419220 -5.011172 -1.932856 -1.807219 -13.846801 -53.385974 -45.655268 40.218356 -12.071485 -14.569553 2.928301 12.133008 1.480193 1.323445 0.087324 2.286374 4.546347 0.810701 6.437815 -0.335369 3.367271 -0.001837 0.033400 0.005830 11.750444 12.734654 4.604601 4.705488 1.007293 2.781445 14.213741 -7.874718 -3.883428 0.054522 0.127241 0.007781
0.546993 88.874177 -14.378775 110.795571 -5.382499 -3.009697 -9.212428 2.430137 -2.365889 -5.339657 1.381441 -1.299643 -6.679831 1.707383 -1.644346 -5.339657 1.381441 -1.299643 -25.783112 13.668470 1.934296 -33.276073 -8.950604 9.095963 29.757421 -7.093711 -6.619749 11.672112 -25.335243 78.887550 46.021743 25.377073 24.015911 13.822605 2.065371 -6.739047 12.414585 -5.018560 -1.944079 -1.787803 -13.859630 -53.344738 -45.702149 40.212068 -12.089429 -14.579345 2.930817 12.119248 1.461518 1.315759 0.090834 2.296337 4.549791 0.806727 6.411501 -0.341165 3.367240 -0.000577 0.034083 0.006171 11.724601 12.732121 4.605516 4.703145 1.011468 2.779188 14.218254 -7.880479 -3.881210 0.052009 0.123708 0.007289
0.550799 88.873612 -14.380788 110.836656 -5.370985 -3.009085 -9.229709 2.419813 -2.372051 -5.346797 1.377936 -1.302856 -6.688752 1.702929 -1.648336 -5.346797 1.377936 -1.302856 -25.788575 13.658485 1.945932 -33.289781 -8.960379 9.113403 29.762614 -7.118896 -6.626499 11.679527 -25.341218 78.894989 46.033735 25.349696 24.019478 13.833322 2.053598 -6.751178 12.415869 -5.026354 -1.954427 -1.761996 -13.863781 -53.308121 -45.759762 40.200550 -12.117899 -14.586546 2.929312 12.111964 1.430109 1.307223 0.090005 2.307376 4.550985 0.803270 6.385885 -0.347883 3.365091 0.000469 0.035538 0.007733 11.692472 12.728131 4.604216 4.702493 1.012844 2.776655 14.204139 -7.885043 -3.876663 0.044645 0.119260 0.005008
0.554818 88.873130 -14.382979 110.880528 -5.357629 -3.008947 -9.249626 2.408759 -2.377676 -5.355284 1.374125 -1.305612 -6.699356 1.698095 -1.651754 -5.355284 1.374125 -1.305612 -25.791426 13.651152 1.948871 -33.296154 -8.968506 9.118724 29.769507 -7.141626 -6.630910 11.699530 -25.351448 78.897373 46.036565 25.331389 24.009475 13.838057 2.046132 -6.759956 12.418119 -5.036038 -1.960310 -1.733068 -13.859307 -53.277502 -45.818421 40.177026 -12.152118 -14.591653 2.918902 12.113353 1.397588 1.298815 0.090637 2.314670 4.549901 0.796829 6.363648 -0.354212 3.363946 0.001325 0.036701 0.009497 11.659044 12.723075 4.602071 4.700845 1.011751 2.775116 14.190049 -7.888344 -3.871570 0.037036 0.114891 0.002341
0.559778 88.872832 -14.385187 110.922699 -5.346748 -3.011419 -9.268130 2.399356 -2.381139 -5.363386 1.370192 -1.308429 -6.709477 1.693108 -1.655246 -5.363386 1.370192 -1.308429 -25.792298 13.646811 1.942152 -33.295790 -8.974553 9.110845 29.773845 -7.163862 -6.630999 11.729787 -25.363814 78.895959 46.030864 25.325304 23.988589 13.836156 2.045750 -6.764814 12.418894 -5.045360 -1.960570 -1.713297 -13.851970 -53.249930 -45.863750 40.140253 -12.185212 -14.597345 2.903061 12.118810 1.372063 1.293695 0.095544 2.316020 4.547739 0.785799 6.348664 -0.360183 3.366004 0.002345 0.036701 0.010914 11.629418 12.719204 4.597216 4.700785 1.008614 2.776228 14.199834 -7.889434 -3.870026 0.036275 0.111364 0.003303
0.566184 88.872795 -14.387433 110.958390 -5.341755 -3.017272 -9.279233 2.394023 -2.382921 -5.368319 1.366871 -1.311901 -6.715641 1.688889 -1.659554 -5.368319 1.366871 -1.311901 -25.794629 13.645207 1.931563 -33.295973 -8.977399 9.098177 29.772635 -7.189134 -6.624355 11.757750 -25.376168 78.892268 46.020521 25.333644 23.964035 13.830903 2.050973 -6.765829 12.417777 -5.053127 -1.954403 -1.714648 -13.846808 -53.224721 -45.887175 40.095431 -12.209136 -14.605233 2.892360 12.122411 1.358716 1.294371 0.106006 2.312986 4.545578 0.773806 6.331548 -0.364754 3.368871 0.003378 0.035002 0.011248 11.612165 12.719503 4.592988 4.701093 1.004341 2.778415 14.232913 -7.889422 -3.873614 0.043647 0.108575 0.009380
0.572648 88.872878 -14.390137 110.989841 -5.335671 -3.021672 -9.284982 2.387033 -2.387959 -5.369072 1.364423 -1.315427 -6.716585 1.685776 -1.663927 -5.369072 1.364423 -1.315427 -25.799532 13.645347 1.923570 -33.300757 -8.977233 9.089395 29.762398 -7.221106 -6.611836 11.777169 -25.383265 78.887635 46.010830 25.351529 23.940294 13.824519 2.059743 -6.764742 12.412082 -5.058716 -1.944570 -1.733784 -13.848755 -53.201680 -45.895266 40.058526 -12.225152 -14.610991 2.888358 12.123781 1.353432 1.293264 0.114677 2.304553 4.544333 0.765595 6.310747 -0.368519 3.369198 0.004271 0.033007 0.011180 11.601977 12.722700 4.596048 4.697531 0.997328 2.777479 14.225936 -7.890911 -3.873411 0.040948 0.103782 0.011314
0.578306 88.872983 -14.393317 111.020954 -5.323248 -3.023158 -9.290531 2.376421 -2.396553 -5.367860 1.362662 -1.318341 -6.715073 1.683536 -1.667537 -5.367860 1.362662 -1.318341 -25.805420 13.644833 1.921980 -33.309327 -8.976865 9.089132 29.745667 -7.260553 -6.599702 11.786431 -25.382042 78.885010 46.010144 25.369631 23.924667 13.819145 2.065854 -6.764453 12.402744 -5.062260 -1.937793 -1.757428 -13.861042 -53.177086 -45.896956 40.042312 -12.234371 -14.611888 2.890931 12.119876 1.346386 1.285054 0.117661 2.294319 4.544016 0.761375 6.295020 -0.372069 3.368029 0.005123 0.031354 0.011077 11.590704 12.724845 4.604651 4.691488 0.987036 2.775129 14.163936 -7.893794 -3.866561 0.024113 0.096447 0.005530
0.584208 88.873215 -14.396261 111.050958 -5.308312 -3.027831 -9.295013 2.368148 -2.402290 -5.366689 1.361299 -1.320497 -6.713611 1.681806 -1.670208 -5.366689 1.361299 -1.320497 -25.812155 13.641845 1.928328 -33.322241 -8.978385 9.099494 29.729266 -7.301324 -6.593057 11.782240 -25.376354 78.885014 46.021716 25.379904 23.920634 13.818830 2.063730 -6.766527 12.393929 -5.065939 -1.936528 -1.776063 -13.878079 -53.150475 -45.900481 40.046128 -12.237240 -14.611526 2.900371 12.109170 1.335170 1.273301 0.121203 2.287799 4.544479 0.758100 6.292463 -0.373704 3.368829 0.006630 0.028053 0.010661 11.579680 12.724600 4.613941 4.684674 0.974958 2.774935 14.108762 -7.896208 -3.860814 0.010987 0.089827 -0.000005
0.591268 88.873651 -14.398743 111.079997 -5.294601 -3.038697 -9.298776 2.363789 -2.402223 -5.367041 1.359973 -1.321598 -6.714049 1.680131 -1.671565 -5.367041 1.359973 -1.321598 -25.819315 13.637903 1.939739 -33.337670 -8.980356 9.116537 29.720831 -7.335368 -6.592556 11.772005 -25.370914 78.883037 46.036885 25.376006 23.921117 13.825752 2.055002 -6.771696 12.385097 -5.068743 -1.938123 -1.778802 -13.894934 -53.129209 -45.911918 40.062764 -12.237978 -14.610512 2.910972 12.094820 1.321596 1.263444 0.131295 2.284772 4.543693 0.754184 6.292526 -0.372093 3.371031 0.007862 0.022887 0.009558 11.569398 12.724734 4.622926 4.677167 0.958983 2.775492 14.094949 -7.895945 -3.857845 0.009706 0.085583 -0.001594
0.598966 88.874216 -14.401377 111.111092 -5.279292 -3.051192 -9.305921 2.358734 -2.399303 -5.369666 1.358192 -1.321477 -6.717322 1.677897 -1.671396 -5.369666 1.358192 -1.321476 -25.826273 13.635176 1.951046 -33.352589 -8.980875 9.133269 29.720936 -7.360080 -6.598576 11.772669 -25.368785 78.874968 46.044844 25.356332 23.916705 13.837081 2.046184 -6.779416 12.377620 -5.069275 -1.942012 -1.762873 -13.912022 -53.120982 -45.928163 40.083117 -12.239399 -14.606986 2.919145 12.078043 1.306020 1.255004 0.144134 2.281343 4.538777 0.749250 6.287733 -0.368446 3.373993 0.008128 0.018150 0.007892 11.554986 12.725564 4.631126 4.670616 0.937045 2.774032 14.098350 -7.892057 -3.853022 0.011441 0.081840 -0.002722
0.607108 88.874890 -14.404348 111.140696 -5.260878 -3.063267 -9.313821 2.351783 -2.395242 -5.372517 1.355453 -1.320485 -6.720870 1.674479 -1.670127 -5.372517 1.355453 -1.320485 -25.833251 13.634929 1.959314 -33.366167 -8.978701 9.145879 29.721492 -7.376419 -6.609080 11.791363 -25.371324 78.858794 46.042274 25.325343 23.900246 13.848047 2.042664 -6.783885 12.373804 -5.069665 -1.945852 -1.739489 -13.924319 -53.125658 -45.942841 40.094555 -12.243707 -14.603461 2.924997 12.063805 1.291742 1.245775 0.157489 2.272427 4.530294 0.743481 6.282690 -0.363518 3.377482 0.008202 0.014427 0.005870 11.542653 12.723836 4.638854 4.666301 0.913794 2.770335 14.107368 -7.886517 -3.847388 0.013213 0.077552 -0.003414
0.616065 88.875731 -14.407637 111.166491 -5.240784 -3.075461 -9.319462 2.344093 -2.391186 -5.374693 1.351460 -1.319277 -6.723570 1.669498 -1.668566 -5.374693 1.351460 -1.319277 -25.837964 13.638017 1.964103 -33.374624 -8.973301 9.153051 29.717741 -7.389280 -6.618926 11.823282 -25.375114 78.837716 46.030966 25.295769 23.869005 13.853731 2.045476 -6.777550 12.370913 -5.070527 -1.946104 -1.716180 -13.928905 -53.137303 -45.947855 40.090032 -12.248979 -14.605398 2.928844 12.057669 1.279268 1.236149 0.171478 2.258674 4.520012 0.738799 6.277749 -0.357724 3.379071 0.008578 0.011198 0.004375 11.537781 12.719367 4.647691 4.662878 0.893043 2.766064 14.118129 -7.881831 -3.843364 0.015895 0.072947 -0.003162
0.625597 88.876727 -14.411406 111.192121 -5.217501 -3.086612 -9.325617 2.333504 -2.388970 -5.377187 1.345926 -1.318257 -6.726660 1.662589 -1.667218 -5.377187 1.345926 -1.318257 -25.838539 13.644021 1.966409 -33.375478 -8.965453 9.155552 29.709695 -7.403490 -6.624265 11.863788 -25.377822 78.820778 46.014721 25.283145 23.827206 13.846357 2.049741 -6.762610 12.371873 -5.068973 -1.943034 -1.698384 -13.932028 -53.153704 -45.938038 40.077443 -12.250689 -14.611763 2.930410 12.056153 1.266515 1.225628 0.181772 2.245752 4.505968 0.736096 6.278137 -0.350977 3.379996 0.010123 0.008232 0.004368 11.535261 12.711528 4.658225 4.658743 0.875492 2.761187 14.115437 -7.879402 -3.838827 0.014577 0.067712 -0.004411
0.635973 88.877905 -14.415631 111.217686 -5.192647 -3.097391 -9.332418 2.320929 -2.388002 -5.379886 1.339642 -1.317253 -6.730004 1.654741 -1.665879 -5.379886 1.339642 -1.317253 -25.836302 13.650814 1.968707 -33.371900 -8.957206 9.157143 29.698952 -7.421656 -6.626657 11.900969 -25.379809 78.815254 45.994975 25.292817 23.781195 13.826340 2.052614 -6.746809 12.379227 -5.064473 -1.938622 -1.690221 -13.936740 -53.172797 -45.916732 40.065922 -12.246908 -14.615798 2.930943 12.052415 1.254093 1.216792 0.191759 2.234100 4.486897 0.732315 6.277073 -0.342539 3.382916 0.011576 0.005328 0.003848 11.533798 12.700848 4.669512 4.654497 0.862134 2.756101 14.106786 -7.879034 -3.834176 0.010439 0.061868 -0.006539
